<?xml version="1.0" encoding="UTF-8"?>
<svg width="79px" height="106px" viewBox="0 0 79 106" version="1.1" xmlns="http://www.w3.org/2000/svg" xmlns:xlink="http://www.w3.org/1999/xlink">
    <!-- Generator: Sketch 52.6 (67491) - http://www.bohemiancoding.com/sketch -->
    <title>barneforsikring Bear</title>
    <desc>Created with Sketch.</desc>
    <g id="sjekk-hva-du-taper" stroke="none" stroke-width="1" fill="none" fill-rule="evenodd">
        <g id="information-copy-8-(5)" transform="translate(-120.000000, -738.000000)" fill-rule="nonzero">
            <g id="barneforsikring-Bear" transform="translate(120.000000, 738.000000)">
                <g id="45_Illu_Barneforsikring_Bamse">
                    <path d="M64.2967352,18.6413027 C62.0747157,15.2519749 58.9071559,12.3333871 55.030441,10.2150573 L54.7467789,10.0738353 L54.794056,9.7443173 C55.3141031,5.5547316 59.4744801,2.35369983 64.5331203,2.35369983 C69.9226995,2.35369983 74.3194616,6.07254557 74.3194616,10.5916492 C74.3194616,15.0636789 70.0172536,18.7354507 64.7695053,18.8295987 L64.4858433,18.8295987 L64.2967352,18.6413027 Z M14.1358263,18.8295987 C8.8880781,18.7354507 4.58587008,15.0636789 4.58587008,10.5916492 C4.58587008,6.07254557 8.98263212,2.35369983 14.3722114,2.35369983 C19.3835746,2.35369983 23.5439516,5.50765761 24.0639987,9.7443173 L24.1112757,10.0738353 L23.8276136,10.2150573 C19.9508987,12.3333871 16.736062,15.2519749 14.5613194,18.6413027 L14.4194884,18.8295987 L14.1358263,18.8295987 Z" id="Shape" fill="#776655"></path>
                    <path d="M63.9185191,103.092053 C60.1836352,103.092053 56.6851364,101.350315 54.6522249,98.384653 L54.5576709,98.290505 L54.5103939,98.243431 L50.680956,92.7828474 C50.0663548,91.9355154 49.6881388,90.9940355 49.4517537,89.9113336 C49.3571997,89.3464456 49.3099227,88.8757057 49.3099227,88.4520397 L49.3099227,88.3578917 C49.3099227,87.8400777 49.4044767,87.2281158 49.4990307,86.7103018 C50.3027399,83.2739001 53.3757456,80.9202002 56.8742445,80.9202002 L56.9215215,80.9202002 C57.3942916,80.9202002 57.9143387,80.9672742 58.4816628,81.1084962 L58.7180479,81.1555702 L66.1405386,82.8031601 L66.1878157,82.8031601 L66.3296467,82.8502341 C71.3882869,83.932936 74.9340627,88.0283737 74.9340627,92.8299214 C74.9813397,98.478801 70.0172536,103.092053 63.9185191,103.092053 Z M14.8922585,103.092053 C8.79352408,103.092053 3.82943791,98.478801 3.82943791,92.8299214 C3.82943791,88.0283737 7.37521374,83.885862 12.4338539,82.8502341 C12.481131,82.8502341 12.528408,82.8502341 12.575685,82.8031601 L12.622962,82.8031601 L20.0454527,81.1555702 L20.2818378,81.1084962 C20.8018849,81.0143482 21.3692091,80.9202002 21.8419792,80.9202002 L21.9365332,80.9202002 C25.435032,80.9202002 28.4607607,83.3209741 29.2644699,86.7573758 C29.406301,87.2751898 29.453578,87.8400777 29.453578,88.4520397 L29.453578,88.4991137 C29.453578,88.9698537 29.406301,89.4405936 29.3117469,90.0054816 C29.1226389,91.0411095 28.6971458,92.0296634 28.0825446,92.8769954 L24.2531067,98.337579 L24.2531067,98.384653 C24.2058297,98.431727 24.2058297,98.478801 24.1585527,98.478801 C22.1256412,101.350315 18.6271424,103.092053 14.8922585,103.092053 Z M39.4290273,89.4405936 C37.2070078,89.4405936 34.3703871,89.0169276 31.6755975,88.2637437 L31.3446584,88.1695957 L31.3446584,87.8400777 C31.0137193,82.8973081 26.8533424,79.0372404 21.8892562,79.0372404 C21.6528711,79.0372404 21.3692091,79.0372404 21.132824,79.0843144 L20.7073309,79.1313884 L20.6127769,78.7077224 C20.2345608,76.5423185 20.3291148,73.8120267 20.8491619,70.234403 L21.085547,68.7751091 L21.180101,68.3043691 L21.6055941,66.2801873 C23.0711815,60.0664197 25.8132481,54.8882801 29.3590239,51.7343223 L29.548132,51.5460263 L29.784517,51.6401743 C31.0137193,52.0167663 32.2901986,52.2992103 33.613955,52.5345803 C34.1340021,52.6287282 34.6067722,52.7228762 35.0795423,52.7699502 C35.5995894,52.8170242 36.0723595,52.8640982 36.5451296,52.9111722 C37.5379469,53.0053202 38.4834871,53.0523942 39.4763043,53.0523942 C40.4218446,53.0523942 41.4146618,53.0053202 42.407479,52.9111722 C42.8802491,52.8640982 43.3530193,52.8170242 43.8730664,52.7699502 C44.3458365,52.7228762 44.8186066,52.6287282 45.3386537,52.5345803 C46.66241,52.2992103 47.9861664,51.9696923 49.2153686,51.5931003 L49.4517537,51.4989523 L49.6408617,51.6872483 C53.1866376,54.8882801 55.9287042,60.0664197 57.3470146,66.2801873 L57.7725077,68.2572951 L57.8670617,68.6809611 L58.1034467,70.187329 C58.5289398,72.8705468 58.8598789,75.9303566 58.3871088,78.6606484 L58.2925548,79.0843144 L57.8670617,79.0372404 C57.5833996,78.9901664 57.2997376,78.9901664 57.0160755,78.9901664 C52.0519893,78.9901664 47.8916123,82.8502341 47.5606732,87.7930037 L47.5606732,88.1225217 L47.2297342,88.2166697 C44.4403905,89.0169276 41.6510469,89.4405936 39.4290273,89.4405936 Z M68.5043892,72.6351768 C67.606126,72.6351768 66.6605858,72.4939548 65.7623226,72.1644369 C65.6677685,72.1173629 65.6204915,72.1173629 65.5259375,72.1173629 L65.4313835,72.1173629 C64.6749513,71.9290669 62.8311479,70.8934389 59.8999732,68.9634051 L59.7108651,68.8692571 L59.6163111,68.3985171 C58.4343858,61.1961956 55.7395962,55.2648721 51.8628813,51.2635823 L51.3901112,50.7457684 L52.0519893,50.4633244 L53.0448065,50.0396584 L53.2339146,49.9455104 L53.4230226,49.9925844 C55.8814272,50.7928424 58.7653249,51.7813963 62.0274387,52.9111722 C74.2721846,57.1478319 76.163265,62.3259716 76.4469271,63.8323394 L76.4469271,63.9264874 L76.3996501,64.0206354 C76.3523731,64.1147834 76.3523731,64.2560054 76.3996501,64.3501534 C76.4469271,64.6796714 76.4469271,64.9621154 76.4469271,65.2445593 C76.4469271,69.387071 72.9011512,72.6351768 68.5043892,72.6351768 Z M10.3536654,72.6351768 C5.95690341,72.6351768 2.36385056,69.3399971 2.36385056,65.3387073 C2.36385056,65.0562634 2.36385056,64.7738194 2.41112757,64.4443014 L2.41112757,64.1618574 L2.36385056,64.0677094 L2.36385056,63.9735614 C2.64751263,62.4671935 4.44403905,57.2890539 16.783339,53.0053202 C19.9981757,51.8755443 22.9293504,50.8869904 25.387755,50.0867324 L25.576863,50.0396584 L25.7659711,50.1338064 L26.8060653,50.6045464 L27.4679435,50.8869904 L26.9951734,51.4048043 C23.1184585,55.406094 20.4236688,61.2903436 19.1471895,68.4926651 L19.0526355,68.9634051 L18.8635275,69.0575531 C15.9323528,70.9405129 14.1831034,71.9761409 13.3793942,72.1644369 L13.2848401,72.1644369 C13.1902861,72.1644369 13.0957321,72.1644369 13.0484551,72.2115108 C12.1501919,72.4939548 11.2519287,72.6351768 10.3536654,72.6351768 Z M35.7886975,50.9340644 C35.2213733,50.8869904 34.7486032,50.7928424 34.2758331,50.7457684 C33.755786,50.6516204 33.2357389,50.5574724 32.7629687,50.4633244 L32.5265837,50.4162504 C31.8174285,50.2750284 31.2028274,50.0867324 30.5882262,49.8984364 L29.73724,49.6159925 L28.8862538,49.3335485 C28.4607607,49.1923265 27.9879906,49.0040305 27.5152205,48.8157345 C26.8533424,48.5332905 26.1914642,48.2508466 25.576863,47.9213286 C17.7288792,43.9671129 13.0957321,37.1413834 13.0957321,29.6566179 C13.0957321,26.5968081 13.8521643,23.6782203 15.4123056,20.8537805 C15.7432447,20.2888926 16.0741838,19.7240046 16.4051229,19.2532646 C16.830616,18.5942287 17.3506631,17.9822667 17.8707102,17.3232308 C19.2417436,15.7227149 20.8964389,14.263421 22.7402424,13.0394971 C23.3548435,12.6158311 23.9694447,12.2392391 24.6785998,11.8626472 C25.1513699,11.5802032 25.6714171,11.3448332 26.2387412,11.0623892 C30.2572872,9.17942935 34.7958802,8.19087542 39.4290273,8.19087542 C44.0621744,8.19087542 48.6007675,9.17942935 52.6193134,11.0623892 C53.1866376,11.3448332 53.7066847,11.6272772 54.1794548,11.8626472 C54.841333,12.2392391 55.5032111,12.6158311 56.1178123,13.0394971 C57.9616157,14.263421 59.6163111,15.7227149 60.9873444,17.3232308 C61.5073915,17.9351927 62.0274387,18.5942287 62.4529318,19.2532646 C62.7838709,19.7710786 63.1148099,20.2888926 63.445749,20.8537805 C64.9586134,23.6311463 65.7623226,26.5968081 65.7623226,29.6566179 C65.7623226,37.1413834 61.0818984,43.9671129 53.2811916,47.9213286 C52.6665905,48.2508466 52.0047123,48.5332905 51.3428341,48.8157345 C50.917341,49.0040305 50.4918479,49.1452525 50.0190778,49.3335485 C49.7354158,49.4276965 49.4044767,49.5218445 49.1208146,49.6630665 C48.8371526,49.7572145 48.5534905,49.8513624 48.3171054,49.9455104 C47.7025043,50.1338064 47.0879031,50.2750284 46.378748,50.4162504 L46.0950859,50.4633244 L44.5349445,50.7457684 C44.0621744,50.8399164 43.5894043,50.8869904 43.0220802,50.9340644 C41.8401549,51.0752864 40.6109526,51.1223604 39.4290273,51.1223604 C38.247102,51.1223604 37.0178998,51.0752864 35.7886975,50.9340644 Z M39.4290273,31.0217638 C37.5852239,31.0217638 35.8359745,31.4925038 34.6067722,32.3398357 C33.3775699,33.1871676 32.7156917,34.2698696 32.7156917,35.4467195 C32.7156917,37.8945673 35.6941434,40.8602291 39.4290273,40.8602291 C43.1639112,40.8602291 46.1423629,37.8945673 46.1423629,35.4467195 C46.1423629,32.9517976 43.1639112,31.0217638 39.4290273,31.0217638 Z" id="Shape" fill="#AC9D8C"></path>
                    <path d="M39.4290273,38.9772692 C38.199825,38.9772692 36.9706227,38.5536032 36.0250825,37.7533453 C35.1740963,37.0472354 34.6067722,36.1528294 34.6067722,35.4467195 C34.6067722,34.2227956 36.5924067,32.9047237 39.4290273,32.9047237 C42.265648,32.9047237 44.2512825,34.2227956 44.2512825,35.4467195 C44.2512825,36.8589394 42.07654,38.9772692 39.4290273,38.9772692 Z" id="Shape" fill="#666666"></path>
                    <path d="M67.0860789,80.5436083 L66.8969708,80.4965343 L60.6091283,79.1313884 C60.9873444,76.9659845 60.8927904,74.6593587 60.6564053,72.2585848 C62.7365938,73.5295828 64.3912892,74.3769147 65.1949984,74.5181367 C66.2823697,74.8476547 67.3697409,75.0359506 68.4571122,75.0359506 C74.1776305,75.0359506 78.8107776,70.705143 78.8107776,65.3857813 C78.8107776,65.1504114 78.8107776,64.9150414 78.7635006,64.6325974 L78.8107776,64.3501534 C78.8107776,64.1147834 78.8107776,62.0435276 76.6833121,59.3603098 C74.0357995,55.970982 69.3553754,53.0994682 62.7365938,50.8399164 C60.3727433,50.0396584 58.3871088,49.3335485 56.5905824,48.7686605 C63.540303,44.4378528 68.0316191,37.5179753 68.0316191,29.7507659 C68.0316191,26.7380301 67.3224639,23.8194423 66.0932616,21.1832985 C72.002888,20.4771885 76.5414811,16.0522329 76.5414811,10.6857972 C76.5414811,4.84862165 71.1046248,0.0941479933 64.3912892,0.0941479933 C58.5289398,0.0941479933 53.6121307,3.76591973 52.4774824,8.61454139 C48.5534905,6.91987751 44.0621744,5.93132358 39.3344733,5.93132358 C34.6067722,5.93132358 30.1154561,6.91987751 26.1914642,8.61454139 C25.1513699,3.67177174 20.2345608,0 14.3722114,0 C7.65887581,0 2.22201953,4.75447366 2.22201953,10.5916492 C2.22201953,15.9110109 6.7606126,20.3359665 12.670239,21.0891505 C11.4410367,23.7723683 10.7318815,26.6438821 10.7318815,29.6566179 C10.7318815,37.4238273 15.2231976,44.3437048 22.1729182,48.6745125 C20.4236688,49.2864745 18.3907573,49.9455104 16.0269068,50.7457684 C9.40812523,53.0053202 4.72770112,55.876834 2.08018849,59.2661618 C0,62.0435276 0,64.1147834 0,64.3501534 C0,64.4443014 0,64.5384494 0.0472770112,64.5855234 C0,64.8679674 0,65.1033374 0,65.3387073 C0,70.658069 4.6331471,74.9888767 10.3536654,74.9888767 C11.4410367,74.9888767 12.575685,74.8005807 13.6157792,74.4710627 C14.4194884,74.3298407 16.0741838,73.4825088 18.1543723,72.2585848 C17.9179872,74.5652107 17.8234332,76.9189105 18.2489263,79.1313884 L11.9138068,80.4965343 L11.7246988,80.5436083 C5.67324134,81.9087542 1.46558735,86.9456718 1.46558735,92.7828474 C1.51286436,99.7968729 7.51704478,105.445752 14.8922585,105.445752 C19.3362976,105.445752 23.4493975,103.374497 25.9550791,99.9380949 C26.0023562,99.8910209 26.0496332,99.8439469 26.0969102,99.7497989 L30.0209021,94.1479933 C30.7773343,93.0652914 31.2973814,91.8884414 31.5810435,90.6645175 C34.4649412,91.3706275 37.3015618,91.7472195 39.4290273,91.7472195 C41.5564928,91.7472195 44.3931135,91.3706275 47.2770112,90.6174435 C47.5606732,91.8413674 48.0807204,93.0182174 48.8371526,94.1009193 L52.7611445,99.7027249 C52.8084215,99.7497989 52.8556985,99.7968729 52.9029755,99.8910209 C55.4086571,103.327423 59.5217571,105.398678 63.9657961,105.398678 C71.3410099,105.398678 77.3924673,99.7497989 77.3924673,92.7828474 C77.3451903,86.9456718 73.1375363,81.9558282 67.0860789,80.5436083 Z M63.9185191,102.621313 C60.3254663,102.621313 57.0160755,100.926649 55.030441,98.149283 L54.88861,98.008061 L51.0591721,92.5474774 C50.4918479,91.7472195 50.1136319,90.8057395 49.9245238,89.8642596 C49.8299698,89.3935196 49.7826928,88.9698537 49.7826928,88.4991137 L49.7826928,88.4049657 C49.7826928,87.8400777 49.8772468,87.3222638 49.9718008,86.8044498 C50.728233,83.697566 53.5648537,81.3438662 56.9215215,81.3438662 L56.9687985,81.3438662 C57.4415686,81.3438662 57.9616157,81.3909402 58.4816628,81.5321622 L58.7180479,81.5792362 L59.8526962,81.8146062 L66.0459846,83.1797521 L66.2350927,83.2268261 C71.0573478,84.262454 74.4612926,88.1695957 74.4612926,92.7828474 C74.5085696,98.243431 69.7808685,102.621313 63.9185191,102.621313 Z M39.4290273,88.9698537 C37.2070078,88.9698537 34.4649412,88.5461877 31.8174285,87.8400777 C31.4864894,82.6619381 27.1370044,78.5665004 21.8892562,78.5665004 L21.03827,78.6135744 C20.6127769,76.2598746 20.8018849,73.4825088 21.274655,70.281477 L21.5110401,68.8221831 L21.6055941,68.3985171 L22.0310872,66.4214093 C23.3075665,60.9608257 25.8132481,55.547316 29.642686,52.1109143 C30.8718883,52.4875063 32.1956446,52.8170242 33.5194009,53.0053202 C33.992171,53.0994682 34.5122182,53.1465422 35.0322653,53.2406902 L36.4978526,53.3819122 C37.4906699,53.4760602 38.4362101,53.5231342 39.4763043,53.5231342 C40.4691216,53.5231342 41.4619388,53.4760602 42.454756,53.3819122 C42.9748032,53.3348382 43.4475733,53.2877642 43.9203434,53.2406902 C44.4403905,53.1936162 44.9131606,53.0994682 45.4332077,53.0053202 C46.7569641,52.7699502 48.0807204,52.4404323 49.3571997,52.0638403 C53.2339146,55.547316 55.6923192,60.9608257 56.9215215,66.4214093 C57.0633525,67.0804452 57.2051835,67.7394812 57.2997376,68.3985171 L57.3942916,68.8221831 C57.4888456,69.3399971 57.5361226,69.810737 57.6306766,70.281477 C58.1034467,73.3412868 58.3398318,76.1186526 57.9143387,78.6135744 C57.6306766,78.5665004 57.3470146,78.5665004 57.0160755,78.5665004 C51.7683272,78.5665004 47.4188422,82.6619381 47.0879031,87.8400777 C44.3931135,88.5461877 41.6510469,88.9698537 39.4290273,88.9698537 Z M28.9808079,88.4991137 C28.9808079,88.9698537 28.9335308,89.4405936 28.8389768,89.8642596 C28.6498688,90.8057395 28.2716527,91.7472195 27.7043286,92.5474774 L23.9221677,98.008061 L23.7803366,98.149283 C21.7947022,100.973723 18.4853114,102.621313 14.8922585,102.621313 C9.07718615,102.621313 4.30220802,98.243431 4.30220802,92.8299214 C4.30220802,88.2166697 7.65887581,84.309528 12.528408,83.2739001 L12.717516,83.2268261 L18.9580815,81.8616802 L20.1400068,81.5792362 L20.3763918,81.5321622 C20.8964389,81.4380142 21.3692091,81.3438662 21.8419792,81.3438662 C25.245924,81.2967922 28.0352676,83.650492 28.7916998,86.8044498 C28.9335308,87.3222638 28.9808079,87.8400777 28.9808079,88.3578917 L28.9808079,88.4991137 Z M12.9066241,71.7407709 C12.0556379,72.0232149 11.2046517,72.1644369 10.3063884,72.1644369 C6.19328846,72.1644369 2.78934366,69.1046271 2.78934366,65.3387073 C2.78934366,65.1033374 2.78934366,64.8208934 2.83662067,64.5384494 C2.83662067,64.3972274 2.83662067,64.2089314 2.78934366,64.0677094 C2.9784517,62.9379335 4.58587008,57.7127199 16.877893,53.4760602 C20.4236688,52.2521363 23.2602895,51.3106563 25.482309,50.5574724 C25.8132481,50.6986944 26.1914642,50.8869904 26.5696803,51.0282124 C22.6929654,55.0295021 19.9036217,60.9137517 18.6271424,68.3514431 L18.5798654,68.6338871 C15.9323528,70.328551 13.9939953,71.5054009 13.2375631,71.6936969 C13.1902861,71.6936969 13.0484551,71.6936969 12.9066241,71.7407709 Z M14.3722114,2.8244398 C19.1944665,2.8244398 23.1184585,5.88424958 23.6385056,9.7913913 C19.6672367,11.9567951 16.4051229,14.9224569 14.1831034,18.3588587 C9.12446316,18.2647107 5.0586402,14.8283089 5.0586402,10.5916492 C5.0586402,6.30791555 9.21901718,2.8244398 14.3722114,2.8244398 Z M15.7905217,21.1362245 C16.0741838,20.6184105 16.4051229,20.0535226 16.736062,19.5827826 C17.1615551,18.9237466 17.6816022,18.3117847 18.2016493,17.6998227 C19.5726826,16.1463808 21.180101,14.687087 22.9766274,13.463163 C23.5912286,13.0394971 24.2058297,12.6629051 24.8677079,12.3333871 C25.387755,12.0509431 25.9078021,11.7684992 26.4278493,11.5331292 C30.2572872,9.7443173 34.6540492,8.70868938 39.3817503,8.70868938 C44.1094514,8.70868938 48.5534905,9.7443173 52.3356514,11.5331292 C52.8556985,11.7684992 53.3757456,12.0509431 53.8957927,12.3333871 C54.5576709,12.7099791 55.172272,13.0865711 55.7868732,13.463163 C57.6306766,14.687087 59.238095,16.0993069 60.5618513,17.6998227 C61.0818984,18.3117847 61.5546686,18.9237466 62.0274387,19.5827826 C62.3583777,20.1005966 62.6893168,20.6184105 62.9729789,21.1362245 C64.3912892,23.7723683 65.2422754,26.6438821 65.2422754,29.7036919 C65.2422754,37.2355313 60.3727433,43.8258909 52.9975295,47.5447366 C52.3829284,47.8742546 51.7683272,48.1566986 51.1064491,48.4391425 L49.8299698,48.9569565 C49.5463077,49.0511045 49.2626457,49.1452525 48.9317066,49.2394005 C48.6480445,49.3335485 48.4116595,49.4276965 48.1279974,49.4747705 C47.5133962,49.6630665 46.8515181,49.8042884 46.2369169,49.9455104 L45.9532549,49.9925844 L44.4403905,50.2750284 C43.9676204,50.3691764 43.4475733,50.4162504 42.9275262,50.4633244 C41.7456009,50.6045464 40.5636756,50.6516204 39.3344733,50.6516204 C38.105271,50.6516204 36.9233457,50.5574724 35.7414205,50.4633244 L34.2285561,50.2750284 L32.7156917,49.9925844 L32.4793067,49.9455104 L30.5409492,49.4747705 L29.689963,49.1923265 C29.406301,49.0981785 29.1226389,49.0040305 28.8862538,48.9098825 C28.4134837,48.7686605 27.9879906,48.5803645 27.5624975,48.3920685 C26.9006194,48.1096246 26.2860182,47.8271806 25.6714171,47.4976626 C18.4380344,43.7788169 13.5685022,37.1884573 13.5685022,29.6566179 C13.5685022,26.6438821 14.3722114,23.7252943 15.7905217,21.1362245 Z M64.4858433,2.8244398 C69.6390375,2.8244398 73.7994145,6.30791555 73.7994145,10.5916492 C73.7994145,14.8283089 69.7335915,18.2647107 64.6749513,18.3588587 C62.4056548,14.8753829 59.143541,11.9567951 55.2195491,9.7913913 C55.6923192,5.88424958 59.6635881,2.8244398 64.4858433,2.8244398 Z M75.974157,65.3387073 C75.974157,69.1046271 72.6174892,72.1644369 68.4571122,72.1644369 C67.606126,72.1644369 66.7078628,72.0232149 65.8568766,71.7407709 C65.7150455,71.6936969 65.6204915,71.6936969 65.4786605,71.6936969 C64.7222283,71.5054009 62.7365938,70.328551 60.0890812,68.6338871 L60.0418042,68.3985171 C58.8126019,60.9608257 56.0232583,55.0295021 52.1465433,51.0282124 L53.1393606,50.6045464 C55.3613801,51.3577303 58.1980008,52.2992103 61.7437766,53.5231342 C73.9885225,57.7597939 75.6432179,62.8908595 75.8323259,64.0677094 C75.7850489,64.2560054 75.7850489,64.3972274 75.7850489,64.5855234 C75.974157,64.8679674 75.974157,65.1033374 75.974157,65.3387073 Z M39.4290273,41.3309691 C43.4002963,41.3309691 46.615133,38.1299373 46.615133,35.4467195 C46.615133,32.7164277 43.4475733,30.5510238 39.4290273,30.5510238 C35.4104814,30.5510238 32.2429216,32.7164277 32.2429216,35.4467195 C32.2429216,38.1299373 35.4577584,41.3309691 39.4290273,41.3309691 Z M43.7785124,35.4467195 C43.7785124,36.4823474 41.9347089,38.5065293 39.4290273,38.5065293 C36.9233457,38.5065293 35.0795423,36.4823474 35.0795423,35.4467195 C35.0795423,34.5993875 36.7815147,33.3754636 39.4290273,33.3754636 C42.07654,33.3754636 43.7785124,34.5993875 43.7785124,35.4467195 Z" id="Shape" fill="#404040"></path>
                </g>
            </g>
        </g>
    </g>
</svg>