<svg width="22" height="22" version="1.1" viewBox="0 0 5.8181 5.8208" xmlns="http://www.w3.org/2000/svg" xmlns:xlink="http://www.w3.org/1999/xlink">
  <g transform="translate(-29.257 -103.01)" fill="#ff2a2a">
    <g transform="matrix(.25011 0 0 .25011 21.76 81.883)" fill="#ff2a2a">
      <path d="m41.591 84.456a11.636 11.636 0 0 0-11.637 11.637 11.636 11.636 0 0 0 11.637 11.637 11.636 11.636 0 0 0 11.636-11.637 11.636 11.636 0 0 0-11.636-11.637zm-3.1613 5.6638c0.21595-2.7e-5 0.43181 0.08267 0.59729 0.24815l2.564 2.5634 2.5634-2.5634c0.33096-0.33096 0.86361-0.33096 1.1946 0l1.9667 1.9661c0.33096 0.33096 0.33096 0.86423 0 1.1952l-2.564 2.5634 2.564 2.5634c0.33096 0.33096 0.33096 0.86423 0 1.1952l-1.9667 1.9661c-0.33096 0.33096-0.86361 0.33096-1.1946 0l-2.5634-2.5634-2.564 2.5634c-0.33096 0.33096-0.86361 0.33096-1.1946 0l-1.9667-1.9661c-0.33096-0.33096-0.33035-0.86361 6.3e-4 -1.1946l2.5634-2.564-2.564-2.5634c-0.33096-0.33096-0.33035-0.86423 6.3e-4 -1.1952l1.9661-1.9661c0.16548-0.16548 0.38134-0.24812 0.59729-0.24815z" fill="#ff2a2a"/>
    </g>
  </g>
</svg>
